<svg xmlns="http://www.w3.org/2000/svg" width="24" height="24" viewBox="0 0 24 24" fill="none">
    <path fill-rule="evenodd"
        d="m12 3 1.467 2.41-1.436.894L12 6.252l-.031.052-1.436-.894L12 3Zm-4.464 7.334 1.498-2.462 1.436.894-1.499 2.462-1.435-.894Zm7.43-2.462 1.498 2.462-1.435.894-1.499-2.462 1.436-.894Zm2.997 4.924 1.498 2.462-1.435.893-1.499-2.461 1.436-.894ZM4.538 15.258l1.499-2.462 1.436.894-1.499 2.461-1.436-.893ZM3.04 17.72l1.327.826h.14v1.704H1.5l1.54-2.53Zm17.92 0 1.54 2.53h-3.007v-1.704h.14l1.327-.826Zm-10.459 2.53H7.504v-1.704h2.997v1.704Zm5.995 0h-2.997v-1.704h2.997v1.704Z"
        clip-rule="evenodd" />
</svg>