<svg xmlns="http://www.w3.org/2000/svg" width="24" height="24" viewBox="0 0 24 24" fill="none">
  <path fill="black" fill-rule="evenodd" clip-rule="evenodd" d="M12 3L13.467 5.41L12.031 6.304L12 6.252L11.969 6.304L10.533 5.41L12 3ZM7.536 10.334L9.034 7.872L10.47 8.766L8.971 11.228L7.536 10.334ZM14.966 7.872L16.464 10.334L15.7465 10.781L15.029 11.228L14.2795 9.997L13.53 8.766L14.966 7.872ZM4.538 15.258L6.037 12.796L7.473 13.69L5.974 16.151L4.538 15.258ZM3.04 17.72L4.367 18.546H4.507V20.25H1.5L3.04 17.72ZM10.5 20.25H7.504V18.546H10.5V20.25Z" />
  <path fill="black" d="M17.5 13C17.9129 13 18.3111 13.054 18.6959 13.1631C19.447 13.369 20.1307 13.769 20.6781 14.323C21.2317 14.8706 21.6313 15.5543 21.8369 16.3053C21.946 16.6878 22 17.0871 22 17.5C22 17.9129 21.946 18.3111 21.8369 18.6959C21.632 19.4481 21.2323 20.133 20.6781 20.6815C20.1283 21.2324 19.4455 21.6319 18.6959 21.8414C18.3062 21.9477 17.904 22.0011 17.5 22C17.0871 22 16.6889 21.9471 16.3041 21.8425C15.554 21.6314 14.8704 21.2317 14.3185 20.6815C13.7682 20.1293 13.3684 19.4453 13.1575 18.6947C13.0517 18.3054 12.9987 17.9035 13 17.5C13 17.0871 13.0529 16.6889 13.1575 16.3041C13.4795 15.1765 14.2199 14.2143 15.2275 13.6143C15.565 13.4174 15.9273 13.2655 16.3041 13.1631C16.6933 13.0538 17.0958 12.9989 17.5 13Z" />
</svg>