<svg xmlns="http://www.w3.org/2000/svg" width="24" height="24" viewBox="0 0 24 24" fill="none">
  <path
    fill="black" fill-rule="evenodd" clip-rule="evenodd"
    d="M3 5.531A2.531 2.531 0 0 1 5.531 3H18.47A2.531 2.531 0 0 1 21 5.531V18.47A2.531 2.531 0 0 1 18.469 21H5.53A2.531 2.531 0 0 1 3 18.469V5.53Zm2.531-.843a.844.844 0 0 0-.843.843V18.47c0 .466.377.843.843.843H18.47a.844.844 0 0 0 .843-.843V5.53a.844.844 0 0 0-.843-.843H5.53Zm8.996 3.937c-.93 0-1.683.754-1.683 1.683v.567H14.813v1.688H12.844v1.13a3.37 3.37 0 0 1-3.37 3.37H8.63v-1.688h.844c.929 0 1.682-.753 1.682-1.683v-1.13H9.187v-1.687H11.156v-.567a3.37 3.37 0 0 1 3.371-3.37h.844v1.687h-.844Z"
  />
</svg>