<svg xmlns="http://www.w3.org/2000/svg" width="24" height="24" viewBox="0 0 24 24" fill="none">
  <path
    d="M12 6.00002C12.5505 6.00002 13.0815 6.07202 13.5945 6.21752C14.596 6.49206 15.5076 7.02544 16.2375 7.76402C16.9755 8.4942 17.5084 9.40572 17.7825 10.407C17.928 10.917 18 11.4495 18 12C18 12.5505 17.928 13.0815 17.7825 13.5945C17.5093 14.5975 16.9764 15.5108 16.2375 16.242C15.5044 16.9765 14.594 17.5092 13.5945 17.7885C13.08 17.9295 12.5505 18 12 18C11.4495 18 10.9185 17.9295 10.4055 17.79C9.40533 17.5086 8.49387 16.9756 7.75804 16.242C7.02415 15.5058 6.4912 14.5938 6.21004 13.593C6.06879 13.0739 5.99815 12.538 6.00004 12C6.00004 11.4495 6.07054 10.9185 6.21004 10.4055C6.35101 9.90468 6.55622 9.42419 6.82054 8.97602C7.34432 8.08776 8.08361 7.3459 8.97004 6.81902C9.41993 6.55612 9.90261 6.35386 10.4055 6.21752C10.9244 6.07173 11.461 5.99853 12 6.00002Z"
    fill="black" />
</svg>